<?xml version="1.0" standalone="no"?>
<!DOCTYPE svg PUBLIC "-//W3C//DTD SVG 20010904//EN"
 "http://www.w3.org/TR/2001/REC-SVG-20010904/DTD/svg10.dtd">
<svg version="1.0" xmlns="http://www.w3.org/2000/svg"
 width="5pt" height="5pt" viewBox="0 0 50 50"
 preserveAspectRatio="xMidYMid meet">

<g transform="translate(0.000000,48.000000) scale(0.100000,-0.100000)"
fill="red" stroke="none">
<path d="M125 254 c-58 -102 -104 -192 -101 -200 4 -11 45 -14 216 -14 171 0
212 3 216 14 6 15 -202 386 -216 386 -5 0 -56 -84 -115 -186z m211 -17 l91
-162 -94 -3 c-51 -1 -135 -1 -187 0 l-95 3 92 162 c51 89 94 162 97 162 3 0
46 -73 96 -162z"/>
<path d="M222 223 c2 -53 6 -68 18 -68 12 0 16 15 18 68 3 62 1 67 -18 67 -19
0 -21 -5 -18 -67z"/>
<path d="M223 129 c-15 -15 -5 -39 17 -39 22 0 32 24 17 39 -6 6 -14 11 -17
11 -3 0 -11 -5 -17 -11z"/>
</g>
</svg>
