<?xml version="1.0" standalone="no"?>
<!DOCTYPE svg PUBLIC "-//W3C//DTD SVG 20010904//EN"
 "http://www.w3.org/TR/2001/REC-SVG-20010904/DTD/svg10.dtd">
<svg version="1.0" xmlns="http://www.w3.org/2000/svg"
 width="48.000000pt" height="48.000000pt" viewBox="0 0 48.000000 48.000000"
 preserveAspectRatio="xMidYMid meet">

<g transform="translate(0.000000,48.000000) scale(0.100000,-0.100000)"
fill="white" stroke="white">
<path d="M137 374 c-3 -4 1 -17 10 -30 17 -27 14 -55 -13 -126 -19 -50 -13
-97 14 -106 11 -3 12 0 3 16 -16 31 -13 68 9 112 24 47 25 71 5 110 -17 32
-18 33 -28 24z"/>
<path d="M227 374 c-3 -4 1 -17 10 -30 17 -27 14 -55 -13 -126 -19 -50 -13
-97 14 -106 11 -3 12 0 3 16 -16 31 -13 68 9 112 24 47 25 71 5 110 -17 32
-18 33 -28 24z"/>
<path d="M317 374 c-3 -4 1 -17 10 -30 17 -27 14 -55 -13 -126 -19 -50 -13
-97 14 -106 11 -3 12 0 3 16 -16 31 -13 68 9 112 24 47 25 71 5 110 -17 32
-18 33 -28 24z"/>
</g>
</svg>
