<?xml version="1.0" encoding="UTF-8" standalone="no"?>
<!-- Created with Inkscape (http://www.inkscape.org/) -->

<svg
   width="210mm"
   height="297mm"
   viewBox="0 0 210 297"
   version="1.1"
   id="svg5"
   inkscape:version="1.1.2 (b8e25be833, 2022-02-05)"
   sodipodi:docname="thermostat.svg"
   xmlns:inkscape="http://www.inkscape.org/namespaces/inkscape"
   xmlns:sodipodi="http://sodipodi.sourceforge.net/DTD/sodipodi-0.dtd"
   xmlns="http://www.w3.org/2000/svg"
   xmlns:svg="http://www.w3.org/2000/svg">
  <sodipodi:namedview
     id="namedview7"
     pagecolor="#ffffff"
     bordercolor="#666666"
     borderopacity="1.0"
     inkscape:pageshadow="2"
     inkscape:pageopacity="0.0"
     inkscape:pagecheckerboard="0"
     inkscape:document-units="mm"
     showgrid="false"
     inkscape:zoom="0.74029882"
     inkscape:cx="396.46153"
     inkscape:cy="561.93525"
     inkscape:window-width="1920"
     inkscape:window-height="1017"
     inkscape:window-x="-8"
     inkscape:window-y="-8"
     inkscape:window-maximized="1"
     inkscape:current-layer="layer1" />
  <defs
     id="defs2">
    <inkscape:path-effect
       effect="bspline"
       id="path-effect896"
       is_visible="true"
       lpeversion="1"
       weight="33.333333"
       steps="2"
       helper_size="0"
       apply_no_weight="true"
       apply_with_weight="true"
       only_selected="false" />
  </defs>
  <g
     inkscape:label="Layer 1"
     inkscape:groupmode="layer"
     id="layer1">
    <path
       id="path1033"
       style="fill:#cd0000;fill-opacity:1;stroke:#000000;stroke-width:1.6123;stroke-linecap:round;stroke-miterlimit:4;stroke-dasharray:none;stroke-opacity:1"
       d="M 337.70117 421.89648 L 337.70117 751.04883 L 339.44727 751.04883 A 163.028 165.59133 0 0 0 217.22461 911.25781 A 163.028 165.59133 0 0 0 380.25195 1076.8477 A 163.028 165.59133 0 0 0 543.2793 911.25781 A 163.028 165.59133 0 0 0 417.39844 750.02539 L 417.39844 421.89648 L 337.70117 421.89648 z "
       transform="scale(0.26458333)" />
    <path
       id="path1451"
       style="fill:#f4f4f4;fill-opacity:1;stroke:#000000;stroke-width:2.35839;stroke-linecap:round;stroke-miterlimit:4;stroke-dasharray:none;stroke-opacity:1"
       d="M 377.55078 122.8457 A 39.926275 39.926275 0 0 0 337.62305 162.77148 A 39.926275 39.926275 0 0 0 337.67383 164.12695 L 337.49023 164.12695 L 337.49023 421.89648 L 417.39844 421.89648 L 417.39844 165.21875 A 39.926275 39.926275 0 0 0 417.47656 162.77148 A 39.926275 39.926275 0 0 0 377.55078 122.8457 z "
       transform="scale(0.26458333)" />
  </g>
</svg>
